<?xml version="1.0" encoding="UTF-8"?>
<svg version="1.1" xmlns="http://www.w3.org/2000/svg" width="32" height="32">
<path d="M0 0 C1.984375 2.1953125 1.984375 2.1953125 3.75 5.125 C4.34296875 6.07632812 4.9359375 7.02765625 5.546875 8.0078125 C8.18476643 13.4395997 8.47874083 19.06361374 8 25 C5.79259319 27.96858157 4.51402627 28.82865791 1 30 C-5.24128004 30.48443148 -12.17718732 30.53752047 -18 28 C-20.86024138 24.55088539 -21.20472928 21.77094776 -20.9375 17.4375 C-20.29349154 13.32415564 -19.13215728 10.87114417 -16 8 C-14.33607955 7.32650839 -12.66967972 6.6590841 -11 6 C-10.30062468 4.68352881 -9.63270867 3.34977849 -9 2 C-6.02114021 -0.05438606 -3.56996311 -0.50462637 0 0 Z " fill="#8A8682" transform="translate(22,1)"/>
<path d="M0 0 C2.2890625 -0.3046875 2.2890625 -0.3046875 5 0 C6.8359375 2.1171875 6.8359375 2.1171875 8.375 4.875 C8.89835937 5.77992188 9.42171875 6.68484375 9.9609375 7.6171875 C10.30382813 8.40351563 10.64671875 9.18984375 11 10 C10 12 10 12 6.9375 13.125 C5.4834375 13.558125 5.4834375 13.558125 4 14 C2 12.625 2 12.625 0 10 C-0.35791096 6.6419531 -0.23115823 3.36463643 0 0 Z " fill="#B0A499" transform="translate(17,1)"/>
<path d="M0 0 C0.66 0 1.32 0 2 0 C2.4125 0.763125 2.825 1.52625 3.25 2.3125 C5.4044405 5.62110506 7.48955671 6.31791259 11 8 C14 11.3 14 11.3 14 14 C10.23053869 13.62881366 6.62448041 13.12262668 3 12 C-0.08095585 8.12679835 -0.34694268 4.85719754 0 0 Z " fill="#686D70" transform="translate(1,17)"/>
<path d="M0 0 C6.15234375 -0.09765625 6.15234375 -0.09765625 8 0 C9 1 9 1 9.1875 3.375 C9 6 9 6 7 9 C4.13998967 7.71792641 1.92960588 6.50848764 0 4 C0 2.68 0 1.36 0 0 Z " fill="#7E7E7D" transform="translate(7,14)"/>
<path d="M0 0 C0.33 1.65 0.66 3.3 1 5 C-5.75 9 -5.75 9 -8 9 C-9.38232443 7.37373596 -10.71937515 5.7074998 -12 4 C-10.3767313 3.3291288 -8.75132422 2.66342971 -7.125 2 C-6.22007813 1.62875 -5.31515625 1.2575 -4.3828125 0.875 C-2 0 -2 0 0 0 Z " fill="#A29991" transform="translate(29,16)"/>
<path d="M0 0 C-0.5625 1.875 -0.5625 1.875 -2 4 C-5.625 5.25 -5.625 5.25 -9 6 C-8.625 3.5625 -8.625 3.5625 -8 1 C-5.29120665 -0.35439668 -2.99066732 -0.06501451 0 0 Z " fill="#5F666A" transform="translate(30,25)"/>
<path d="M0 0 C3.34373475 0.55728913 6.03312999 1.35173889 9 3 C9 3.66 9 4.32 9 5 C6.36 4.67 3.72 4.34 1 4 C0.67 2.68 0.34 1.36 0 0 Z " fill="#576165" transform="translate(3,25)"/>
<path d="M0 0 C0.66 0 1.32 0 2 0 C2.33 1.65 2.66 3.3 3 5 C1.02 5.66 -0.96 6.32 -3 7 C-2.25 2.25 -2.25 2.25 0 0 Z " fill="#BDAEA1" transform="translate(27,16)"/>
<path d="M0 0 C5.5 1.46666667 5.5 1.46666667 7.875 4 C9 6 9 6 9 8 C8.01 7.67 7.02 7.34 6 7 C6 6.34 6 5.68 6 5 C5.01 4.67 4.02 4.34 3 4 C3 3.34 3 2.68 3 2 C2.01 1.67 1.02 1.34 0 1 C0 0.67 0 0.34 0 0 Z " fill="#707374" transform="translate(6,23)"/>
<path d="M0 0 C2.4375 0.75 2.4375 0.75 5 2 C5.8125 4.125 5.8125 4.125 6 6 C3.37812506 4.95125002 2.20628639 4.35068687 0.75 1.875 C0.5025 1.25625 0.255 0.6375 0 0 Z " fill="#666E71" transform="translate(8,17)"/>
<path d="M0 0 C3.37462715 0.54723683 5.08235 1.0549 8 3 C7.67 3.99 7.34 4.98 7 6 C6.401875 5.505 5.80375 5.01 5.1875 4.5 C3.02970006 2.71723582 3.02970006 2.71723582 0 3 C0 2.01 0 1.02 0 0 Z " fill="#727677" transform="translate(7,15)"/>
</svg>
